<mxfile host="65bd71144e">
    <diagram id="mETiEIhger-tuPHaCsGx" name="Page-1">
        <mxGraphModel dx="1853" dy="827" grid="1" gridSize="10" guides="1" tooltips="1" connect="1" arrows="1" fold="1" page="1" pageScale="1" pageWidth="850" pageHeight="1100" math="0" shadow="0">
            <root>
                <mxCell id="0"/>
                <mxCell id="1" parent="0"/>
                <mxCell id="26" value="" style="rounded=1;whiteSpace=wrap;html=1;gradientDirection=south;" parent="1" vertex="1">
                    <mxGeometry x="-20" y="19.84" width="1350" height="430.16" as="geometry"/>
                </mxCell>
                <mxCell id="2" value="" style="rounded=1;whiteSpace=wrap;html=1;fillColor=#e1d5e7;strokeColor=#9673a6;gradientDirection=south;" parent="1" vertex="1">
                    <mxGeometry x="60" y="60" width="1220" height="340" as="geometry"/>
                </mxCell>
                <mxCell id="3" value="&lt;b&gt;Hybrid Search Engine&lt;/b&gt;" style="rounded=1;whiteSpace=wrap;html=1;verticalAlign=bottom;fillColor=#f5f5f5;fontColor=#333333;strokeColor=#666666;" parent="1" vertex="1">
                    <mxGeometry x="210" y="105" width="470" height="250" as="geometry"/>
                </mxCell>
                <mxCell id="4" value="User" style="shape=umlActor;verticalLabelPosition=bottom;verticalAlign=top;html=1;outlineConnect=0;shadow=1;sketch=1;curveFitting=1;jiggle=2;overflow=visible;gradientColor=none;fontStyle=1" parent="1" vertex="1">
                    <mxGeometry x="90" y="175" width="55" height="110" as="geometry"/>
                </mxCell>
                <mxCell id="5" value="PROMPT" style="endArrow=classic;html=1;flowAnimation=1;entryX=0;entryY=0.5;entryDx=0;entryDy=0;entryPerimeter=0;exitX=0.5;exitY=0.5;exitDx=0;exitDy=0;exitPerimeter=0;labelBackgroundColor=#FFF0D7;textShadow=1;fontStyle=1" parent="1" source="4" target="6" edge="1">
                    <mxGeometry width="50" height="50" relative="1" as="geometry">
                        <mxPoint x="140" y="189" as="sourcePoint"/>
                        <mxPoint x="220" y="210" as="targetPoint"/>
                        <Array as="points">
                            <mxPoint x="180" y="230"/>
                            <mxPoint x="190" y="190"/>
                        </Array>
                    </mxGeometry>
                </mxCell>
                <mxCell id="10" value="Generate Request" style="edgeStyle=none;html=1;flowAnimation=1;labelBackgroundColor=#E6FFCC;fontStyle=1;verticalAlign=top;textShadow=1;" parent="1" target="11" edge="1">
                    <mxGeometry relative="1" as="geometry">
                        <mxPoint x="520" y="188.9999999999999" as="targetPoint"/>
                        <mxPoint x="460" y="189" as="sourcePoint"/>
                        <Array as="points">
                            <mxPoint x="560" y="189"/>
                        </Array>
                    </mxGeometry>
                </mxCell>
                <mxCell id="24" value="" style="edgeStyle=none;html=1;flowAnimation=1;" parent="1" source="6" target="23" edge="1">
                    <mxGeometry relative="1" as="geometry"/>
                </mxCell>
                <mxCell id="6" value="LLM" style="sketch=0;points=[[0,0,0],[0.25,0,0],[0.5,0,0],[0.75,0,0],[1,0,0],[0,1,0],[0.25,1,0],[0.5,1,0],[0.75,1,0],[1,1,0],[0,0.25,0],[0,0.5,0],[0,0.75,0],[1,0.25,0],[1,0.5,0],[1,0.75,0]];outlineConnect=0;fontColor=#232F3E;fillColor=#01A88D;strokeColor=#ffffff;dashed=0;verticalLabelPosition=bottom;verticalAlign=top;align=center;html=1;fontSize=12;fontStyle=1;aspect=fixed;shape=mxgraph.aws4.resourceIcon;resIcon=mxgraph.aws4.augmented_ai;textShadow=1;" parent="1" vertex="1">
                    <mxGeometry x="250" y="160" width="58" height="58" as="geometry"/>
                </mxCell>
                <mxCell id="14" style="edgeStyle=none;html=1;flowAnimation=1;" parent="1" source="11" target="13" edge="1">
                    <mxGeometry relative="1" as="geometry"/>
                </mxCell>
                <mxCell id="11" value="MongoDB Request" style="sketch=0;outlineConnect=0;fontColor=#232F3E;gradientColor=none;fillColor=#232F3D;strokeColor=none;dashed=0;verticalLabelPosition=bottom;verticalAlign=top;align=center;html=1;fontSize=12;fontStyle=1;aspect=fixed;pointerEvents=1;shape=mxgraph.aws4.json_script;textShadow=1;" parent="1" vertex="1">
                    <mxGeometry x="600" y="160" width="42.38" height="58" as="geometry"/>
                </mxCell>
                <mxCell id="12" value="" style="rounded=1;whiteSpace=wrap;html=1;fillColor=#f5f5f5;strokeColor=#666666;fontColor=#333333;gradientColor=#EBEBEB;" parent="1" vertex="1">
                    <mxGeometry x="780" y="105" width="470" height="250" as="geometry"/>
                </mxCell>
                <mxCell id="17" value="Execute Request" style="edgeStyle=none;html=1;entryX=0.018;entryY=0.45;entryDx=0;entryDy=0;entryPerimeter=0;flowAnimation=1;fontStyle=1;labelBackgroundColor=#ECECEC;textShadow=1;" parent="1" source="13" target="15" edge="1">
                    <mxGeometry relative="1" as="geometry">
                        <Array as="points">
                            <mxPoint x="800" y="190"/>
                            <mxPoint x="800" y="220"/>
                        </Array>
                    </mxGeometry>
                </mxCell>
                <mxCell id="13" value="" style="dashed=0;outlineConnect=0;html=1;align=center;labelPosition=center;verticalLabelPosition=bottom;verticalAlign=top;shape=mxgraph.weblogos.mongodb" parent="1" vertex="1">
                    <mxGeometry x="710" y="145.9" width="41.2" height="86.2" as="geometry"/>
                </mxCell>
                <mxCell id="27" value="&lt;span style=&quot;&quot;&gt;Mongo Response&lt;/span&gt;" style="edgeStyle=none;html=1;exitX=0.015;exitY=0.694;exitDx=0;exitDy=0;exitPerimeter=0;entryX=0.995;entryY=0.63;entryDx=0;entryDy=0;entryPerimeter=0;flowAnimation=1;labelBackgroundColor=#ECECEC;textShadow=1;fontStyle=1" parent="1" source="15" target="28" edge="1">
                    <mxGeometry relative="1" as="geometry">
                        <Array as="points">
                            <mxPoint x="850" y="263"/>
                            <mxPoint x="850" y="310"/>
                        </Array>
                    </mxGeometry>
                </mxCell>
                <mxCell id="15" value="&lt;span&gt;&lt;span&gt;MongoDB Database&lt;/span&gt;&lt;/span&gt;" style="strokeWidth=2;html=1;shape=mxgraph.flowchart.database;whiteSpace=wrap;verticalAlign=top;fontStyle=1;textShadow=1;labelBackgroundColor=#EBEBEB;" parent="1" vertex="1">
                    <mxGeometry x="930" y="145" width="170" height="170" as="geometry"/>
                </mxCell>
                <mxCell id="16" value="Resume Table" style="rounded=1;arcSize=10;whiteSpace=wrap;html=1;align=center;fontStyle=1" parent="1" vertex="1">
                    <mxGeometry x="965" y="210" width="100" height="40" as="geometry"/>
                </mxCell>
                <mxCell id="18" value="Skills Collection" style="rounded=1;arcSize=10;whiteSpace=wrap;html=1;align=center;fontStyle=1" parent="1" vertex="1">
                    <mxGeometry x="965" y="260" width="100" height="40" as="geometry"/>
                </mxCell>
                <mxCell id="23" value="Skills Extraction" style="whiteSpace=wrap;html=1;verticalAlign=top;fillColor=#d5e8d4;strokeColor=#82b366;sketch=0;dashed=0;fontStyle=1;" parent="1" vertex="1">
                    <mxGeometry x="411.5" y="163.5" width="67" height="51" as="geometry"/>
                </mxCell>
                <mxCell id="28" value="LLM call" style="aspect=fixed;sketch=0;html=1;dashed=0;whitespace=wrap;verticalLabelPosition=bottom;verticalAlign=top;fillColor=#2875E2;strokeColor=#ffffff;points=[[0.005,0.63,0],[0.1,0.2,0],[0.9,0.2,0],[0.5,0,0],[0.995,0.63,0],[0.72,0.99,0],[0.5,1,0],[0.28,0.99,0]];shape=mxgraph.kubernetes.icon2;prIcon=api;fontStyle=1;labelBackgroundColor=#EBEBEB;textShadow=1;" parent="1" vertex="1">
                    <mxGeometry x="706" y="280" width="50" height="48" as="geometry"/>
                </mxCell>
                <mxCell id="39" value="Format Mongo Response&lt;br&gt;Generate Report For the User" style="edgeStyle=none;html=1;exitX=0;exitY=0.25;exitDx=0;exitDy=0;exitPerimeter=0;entryX=1;entryY=0.25;entryDx=0;entryDy=0;flowAnimation=1;shadow=0;fontStyle=1;verticalAlign=bottom;labelBackgroundColor=#FFF0D7;textShadow=1;" parent="1" source="29" target="36" edge="1">
                    <mxGeometry relative="1" as="geometry"/>
                </mxCell>
                <mxCell id="29" value="LLM" style="sketch=0;points=[[0,0,0],[0.25,0,0],[0.5,0,0],[0.75,0,0],[1,0,0],[0,1,0],[0.25,1,0],[0.5,1,0],[0.75,1,0],[1,1,0],[0,0.25,0],[0,0.5,0],[0,0.75,0],[1,0.25,0],[1,0.5,0],[1,0.75,0]];outlineConnect=0;fontColor=#232F3E;fillColor=#01A88D;strokeColor=#ffffff;dashed=0;verticalLabelPosition=bottom;verticalAlign=top;align=center;html=1;fontSize=12;fontStyle=1;aspect=fixed;shape=mxgraph.aws4.resourceIcon;resIcon=mxgraph.aws4.augmented_ai;textShadow=1;" parent="1" vertex="1">
                    <mxGeometry x="570" y="270" width="58" height="58" as="geometry"/>
                </mxCell>
                <mxCell id="30" style="edgeStyle=none;html=1;exitX=0.005;exitY=0.63;exitDx=0;exitDy=0;exitPerimeter=0;flowAnimation=1;entryX=0.953;entryY=0.362;entryDx=0;entryDy=0;entryPerimeter=0;" parent="1" source="28" target="29" edge="1">
                    <mxGeometry relative="1" as="geometry">
                        <mxPoint x="630" y="291" as="targetPoint"/>
                        <Array as="points">
                            <mxPoint x="670" y="310"/>
                            <mxPoint x="670" y="290"/>
                        </Array>
                    </mxGeometry>
                </mxCell>
                <mxCell id="31" style="edgeStyle=none;html=1;exitX=0;exitY=0.5;exitDx=0;exitDy=0;exitPerimeter=0;entryX=0.766;entryY=0.78;entryDx=0;entryDy=0;entryPerimeter=0;" parent="1" source="29" target="3" edge="1">
                    <mxGeometry relative="1" as="geometry"/>
                </mxCell>
                <mxCell id="36" value="" style="strokeColor=#dddddd;shadow=1;strokeWidth=1;rounded=1;absoluteArcSize=1;arcSize=2;" parent="1" vertex="1">
                    <mxGeometry x="240" y="270" width="150" height="60" as="geometry"/>
                </mxCell>
                <mxCell id="37" value="&lt;font color=&quot;#000000&quot;&gt;User Interface&lt;/font&gt;&lt;br&gt;Streamlit UI" style="editableCssRules=.*;html=1;fontColor=#999999;shape=image;verticalLabelPosition=middle;verticalAlign=middle;labelPosition=right;align=left;spacingLeft=20;part=1;points=[];imageAspect=0;image=data:image/svg+xml,PHN2ZyB4bWxucz0iaHR0cDovL3d3dy53My5vcmcvMjAwMC9zdmciIHhtbG5zOnY9Imh0dHBzOi8vdmVjdGEuaW8vbmFubyIgd2lkdGg9IjIwLjAxMDAwMDIyODg4MTgzNiIgaGVpZ2h0PSI5LjQ5NDcyOTA0MjA1MzIyMyIgdmlld0JveD0iMC4wMDAyMDYzODQ1NjA0NDI1Mjk2MiAwIDIwLjAxMDAwMDIyODg4MTgzNiA5LjQ5NDcyOTA0MjA1MzIyMyI+JiN4YTsJPHN0eWxlIHR5cGU9InRleHQvY3NzIj4mI3hhOwkuc3Qwe2ZpbGw6IzQyODVmNDt9JiN4YTsJLnN0MXtmaWxsOiM2NjlkZjY7fSYjeGE7CS5zdDJ7ZmlsbDojYWVjYmZhO30mI3hhOwk8L3N0eWxlPiYjeGE7CTxwYXRoIGNsYXNzPSJzdDAiIGQ9Ik0xLjQ3NiA4LjQzYTQuMzEgNC4zMSAwIDEgMSA2LjA3LS40IDMuNjggMy42OCAwIDAgMS0uMzkuNCA0LjMyIDQuMzIgMCAwIDEtNS42OCAwem01LjItNS4yYTMuMDcgMy4wNyAwIDEgMC0uNCA0LjMzIDMgMyAwIDAgMCAuNC0uNCAzLjA3IDMuMDcgMCAwIDAgMC0zLjkzem02LjE5IDUuMmE0LjMxIDQuMzEgMCAxIDEgNi4wNy0uNCAzLjc4IDMuNzggMCAwIDEtLjQuNCA0LjMxIDQuMzEgMCAwIDEtNS42NyAwem01LjItNS4yYTMuMDcgMy4wNyAwIDEgMC0uNCA0LjMzIDMgMyAwIDAgMCAuNC0uNCAzLjA4IDMuMDggMCAwIDAgMC0zLjkzeiIvPiYjeGE7CTxnIGNsYXNzPSJzdDEiPiYjeGE7CQk8Y2lyY2xlIGN4PSI0LjMxNiIgY3k9IjUuMTkiIHI9IjEuNjkiLz4mI3hhOwkJPGNpcmNsZSBjeD0iMTUuNjk2IiBjeT0iNS4xOSIgcj0iMS42OSIvPiYjeGE7CTwvZz4mI3hhOwk8cGF0aCBjbGFzcz0ic3QyIiBkPSJNMTIuMzk2LjU2YS4zMS4zMSAwIDAgMC0uMTgtLjU2aC00LjQyYS4zMS4zMSAwIDAgMC0uMTguNTYgNS43MyA1LjczIDAgMCAxIDIuMTMgMi45Mi4yOC4yOCAwIDAgMCAuMzYuMTYuMjkuMjkgMCAwIDAgLjE3LS4xNyA1LjY3IDUuNjcgMCAwIDEgMi4xMi0yLjkxeiIvPiYjeGE7PC9zdmc+;" parent="36" vertex="1">
                    <mxGeometry width="30" height="14" relative="1" as="geometry">
                        <mxPoint x="15" y="23" as="offset"/>
                    </mxGeometry>
                </mxCell>
                <mxCell id="40" style="edgeStyle=none;html=1;exitX=0;exitY=0.25;exitDx=0;exitDy=0;entryX=1;entryY=1;entryDx=0;entryDy=0;entryPerimeter=0;flowAnimation=1;" parent="1" source="36" target="4" edge="1">
                    <mxGeometry relative="1" as="geometry"/>
                </mxCell>
            </root>
        </mxGraphModel>
    </diagram>
</mxfile>